<svg xmlns="http://www.w3.org/2000/svg" width="20.5" height="13.375">
  <g data-name="Raggruppa 15" fill="#fff">
    <path data-name="Tracciato 10" d="M10.25 13.375c4.7 0 10.25-3.805 10.25-6.687S14.95 0 10.25 0 0 3.805 0 6.688s5.55 6.687 10.25 6.687Zm0-1.5c-3.964 0-8.75-3.28-8.75-5.187S6.286 1.5 10.25 1.5 19 4.78 19 6.688s-4.786 5.187-8.75 5.187Z"/>
    <path data-name="Tracciato 11" d="M10.25 11a4.313 4.313 0 1 0-4.312-4.312A4.312 4.312 0 0 0 10.25 11Zm0-1.5a2.813 2.813 0 1 1 2.813-2.812A2.813 2.813 0 0 1 10.25 9.5Z"/>
  </g>
</svg>
