<svg xmlns="http://www.w3.org/2000/svg" width="100" height="100" style="width:100%;height:100%;transform:translate3d(0,0,0);content-visibility:visible"><defs><clipPath id="a"><path d="M0 0h100v100H0z"/></clipPath></defs><g clip-path="url(#a)"><path fill="#F3B064" d="M11.827-.451 5.755-3.795a.98.98 0 0 0-1.32 1.35A4.975 4.975 0 0 0 3.143-.624 4.988 4.988 0 0 0 2.784.812l-7.557-9.266a3.39 3.39 0 0 0-4.36-1.689 3.365 3.365 0 0 0-1.832 1.834 3.364 3.364 0 0 0 0 2.591c.146.352.146.739 0 1.091s-.42.625-.771.771a.98.98 0 0 0 .749 1.811 3.36 3.36 0 0 0 1.833-1.832 3.364 3.364 0 0 0 0-2.591 1.414 1.414 0 0 1 0-1.091 1.427 1.427 0 0 1 2.634 0L-.382 7.258c.034.08.069.159.106.237l.036.076a3.94 3.94 0 0 0 .123.241 6.299 6.299 0 0 0 .254.423c.021.033.043.064.065.096l.078.111.072.099.087.112c.029.036.057.072.087.107.042.051.085.101.129.15l.069.075.112.117.061.061c.062.062.126.122.19.18l.031.026c.062.055.124.11.188.162l.007.005c.724.59 1.586 1 2.52 1.186l.022.004a5.224 5.224 0 0 0 .399.064l.078.009c.064.007.127.013.192.018l.02.001c.141.011.283.019.425.019a5.765 5.765 0 0 0 1.816-.297l.132-.043a5.754 5.754 0 0 0 2.72-2.029l.081-.113a5.82 5.82 0 0 0 1.043-3.275l-.001-.141a5.774 5.774 0 0 0-.44-2.114 1.414 1.414 0 0 1 0-1.091c.09-.218.23-.406.407-.552l.155.084a.98.98 0 1 0 .945-1.717z" transform="translate(45.854 54.35)" style="display:block"/></g></svg>