<svg width="15" height="15" fill="none" xmlns="http://www.w3.org/2000/svg">
  <path d="M14.334.285a.454.454 0 0 0-.857.3c.698 2.005-.687 3.502-1.743 4.304l-.426-.611a.996.996 0 0 0-.714-.379L8.2 3.91a1.624 1.624 0 0 0-.824.255L.322 9.11a.758.758 0 0 0-.186 1.055l3.206 4.587c.24.341.624.3.967.061l7.054-4.947c.203-.144.437-.453.52-.69l.75-2.361a.997.997 0 0 0-.112-.8l-.26-.373c1.418-1.087 2.89-3.007 2.073-5.357Zm-3.282 7.027a1.207 1.207 0 0 1-1.682-.297 1.212 1.212 0 0 1 1-1.905c.251.002.496.083.699.231a4.63 4.63 0 0 1-.371.207.455.455 0 0 0 .387.821c.146-.069.302-.15.465-.248a1.213 1.213 0 0 1-.498 1.191Z" fill="#fff"/>
</svg>
