<svg width="18" height="19" fill="none" xmlns="http://www.w3.org/2000/svg"><path d="M15.791 10.1c.039-.287.058-.584.058-.9 0-.307-.02-.613-.067-.9l1.945-1.515a.47.47 0 0 0 .115-.585l-1.84-3.181a.468.468 0 0 0-.565-.211l-2.29.92a6.77 6.77 0 0 0-1.553-.9L11.249.392a.464.464 0 0 0-.46-.393h-3.68a.454.454 0 0 0-.45.393l-.345 2.434a6.919 6.919 0 0 0-1.553.9l-2.29-.92a.458.458 0 0 0-.566.212L.075 6.2c-.115.202-.077.45.115.585l1.945 1.514a5.624 5.624 0 0 0-.086.901c0 .297.02.613.067.9L.171 11.616a.47.47 0 0 0-.115.585l1.84 3.181c.115.211.354.278.565.211l2.29-.92c.48.364.987.67 1.553.9l.345 2.435c.048.23.23.393.46.393h3.68c.23 0 .422-.163.45-.393l.345-2.434a6.569 6.569 0 0 0 1.553-.9l2.29.92c.211.076.45 0 .566-.212l1.84-3.181c.115-.211.067-.45-.115-.585l-1.927-1.514ZM8.95 12.65a3.46 3.46 0 0 1-3.45-3.45 3.46 3.46 0 0 1 3.45-3.45 3.46 3.46 0 0 1 3.45 3.45 3.46 3.46 0 0 1-3.45 3.45Z" fill="#fff"/></svg>