<svg xmlns="http://www.w3.org/2000/svg" width="100" height="100" style="width:100%;height:100%;transform:translate3d(0,0,0);content-visibility:visible">
  <defs>
    <clipPath id="a">
      <path d="M0 0h100v100H0z"/>
    </clipPath>
  </defs>
  <g clip-path="url(#a)">
    <path fill="#F3B064" d="M10.552.01A10.495 10.495 0 0 1 3.52 9.925 10.495 10.495 0 0 1-8.159 6.558a10.495 10.495 0 0 1-.676-12.136A10.502 10.502 0 0 1 2.4-10.22a.748.748 0 0 1 .27 1.335A4.491 4.491 0 0 0 .801-5.594a4.499 4.499 0 0 0 8.146 2.986.747.747 0 0 1 1.335.27c.178.77.269 1.558.27 2.348z" transform="translate(47.681 52.891)" style="display:block"/>
  </g>
</svg>
