<svg width="13" height="12" fill="none" xmlns="http://www.w3.org/2000/svg">
  <path d="M.76 11.734c.115.115.25.19.407.227.156.041.31.041.461 0a.862.862 0 0 0 .407-.22l4.466-4.473 4.474 4.474a.85.85 0 0 0 .625.25c.25.005.464-.08.642-.258a.888.888 0 0 0 .258-.642.849.849 0 0 0-.25-.625L7.775 5.993l4.473-4.466a.849.849 0 0 0 .25-.625.832.832 0 0 0-.257-.642.888.888 0 0 0-.642-.258.85.85 0 0 0-.625.25L6.5 4.726 2.035.252a.862.862 0 0 0-.407-.219.922.922 0 0 0-.461-.007A.807.807 0 0 0 .76.26a.924.924 0 0 0-.227.876.871.871 0 0 0 .227.391l4.466 4.466L.76 10.467a.87.87 0 0 0-.227.399.922.922 0 0 0-.007.461.84.84 0 0 0 .234.407Z" fill="#fff"/>
</svg>
