<svg fill="none" height="34" width="34" xmlns="http://www.w3.org/2000/svg">
  <rect fill="#fff" fill-opacity=".1" height="34" rx="17" width="34"/>
  <rect height="33" rx="16.5" stroke="#fff" stroke-opacity=".2" width="33" x=".5" y=".5"/>
  <path clip-rule="evenodd" d="M17 11a3.51 3.51 0 0 0-1.22.217 3.272 3.272 0 0 0-1.045.627c-.302.27-.545.595-.712.956a2.75 2.75 0 0 0-.213.68H11.46a.463.463 0 0 0-.461.465c0 .257.207.465.462.465h.769v2.698c0 1.013.142 2.02.423 2.993a3.925 3.925 0 0 0 3.112 2.787l.097.017a6.826 6.826 0 0 0 2.274 0l.097-.017a3.925 3.925 0 0 0 3.112-2.787c.28-.973.423-1.98.423-2.993V14.41h.77a.463.463 0 0 0 .461-.465.463.463 0 0 0-.461-.465H20.19a2.75 2.75 0 0 0-.213-.68 2.947 2.947 0 0 0-.712-.956 3.272 3.272 0 0 0-1.046-.627A3.51 3.51 0 0 0 17 11zm-.9 1.09a2.593 2.593 0 0 1 1.8 0c.284.105.54.259.752.449.212.19.377.413.488.653.044.094.079.19.105.288h-4.49c.026-.098.062-.194.105-.288.111-.24.276-.463.489-.653.212-.19.467-.343.75-.449zm-.33 4.49c.254 0 .46.208.46.465v2.48c0 .257-.206.465-.46.465s-.462-.208-.462-.465v-2.48c0-.257.206-.465.461-.465zm2.46 0c.256 0 .462.208.462.465v2.48c0 .257-.206.465-.461.465s-.462-.208-.462-.465v-2.48c0-.257.207-.465.462-.465z" fill="#fff" fill-rule="evenodd"/>
</svg>
