<svg fill="none" height="40" width="40" xmlns="http://www.w3.org/2000/svg">
  <rect fill="#fff" fill-opacity=".2" height="40" rx="20" width="40"/>
  <rect height="39" rx="19.5" stroke="#fff" stroke-opacity=".4" width="39" x=".5" y=".5"/>
  <path clip-rule="evenodd" d="M25.08 10a4.92 4.92 0 0 0-3.479 1.441L15.8 17.243a20.794 20.794 0 0 0-5.47 9.66l-.28 1.122a1.588 1.588 0 0 0 1.926 1.926l1.121-.28a20.794 20.794 0 0 0 9.66-5.47L28.56 18.4A4.92 4.92 0 0 0 25.08 10zm-1.667 6.587c.888.889 1.918 1.267 2.681 1.134l.894-.893a2.697 2.697 0 1 0-3.816-3.816l-.893.894c-.133.764.245 1.793 1.134 2.681z" fill="#fff" fill-rule="evenodd"/>
</svg>
