<svg width="72" height="90" fill="none" xmlns="http://www.w3.org/2000/svg">
  <g clip-path="url(#a)">
    <rect width="72" height="90" rx="12" fill="#14141D"/>
    <path d="M36 7.66c2.925 0 5.33-2.405 5.33-5.33C41.33-.594 38.925-3 36-3c-2.925 0-5.33 2.406-5.33 5.33 0 2.925 2.405 5.33 5.33 5.33ZM7.934 19.264c2.924 0 5.33-2.405 5.33-5.33 0-2.925-2.405-5.33-5.33-5.33-2.925 0-5.33 2.405-5.33 5.33 0 2.925 2.405 5.33 5.33 5.33Zm56.132 0c2.925 0 5.33-2.405 5.33-5.33 0-2.925-2.405-5.33-5.33-5.33-2.925 0-5.33 2.405-5.33 5.33 0 2.925 2.406 5.33 5.33 5.33ZM-3.67 47.33c2.972 0 5.378-2.405 5.378-5.33 0-2.925-2.406-5.33-5.378-5.33C-6.594 36.67-9 39.075-9 42c0 2.925 2.406 5.33 5.33 5.33Zm79.34 0c2.924 0 5.33-2.405 5.33-5.33 0-2.925-2.406-5.33-5.33-5.33-2.925 0-5.33 2.405-5.33 5.33 0 2.925 2.405 5.33 5.33 5.33ZM64.066 75.396c2.925 0 5.33-2.405 5.33-5.33 0-2.925-2.405-5.33-5.33-5.33-2.925 0-5.33 2.405-5.33 5.33 0 2.925 2.406 5.33 5.33 5.33Zm-56.132 0c2.924 0 5.33-2.405 5.33-5.33 0-2.925-2.405-5.33-5.33-5.33-2.925 0-5.33 2.405-5.33 5.33 0 2.925 2.405 5.33 5.33 5.33ZM36 87c2.925 0 5.33-2.406 5.33-5.33A5.325 5.325 0 0 0 36 76.34a5.325 5.325 0 0 0-5.33 5.33c0 2.924 2.405 5.33 5.33 5.33Z" fill="#181822"/>
    <path d="M33.21 19.264c0 2.925-2.405 5.33-5.33 5.33-2.924 0-5.33-2.405-5.33-5.33 0-2.924 2.405-5.33 5.33-5.33 2.925 0 5.33 2.406 5.33 5.33ZM18.594 50.868c0 2.925-2.405 5.33-5.33 5.33-2.924 0-5.33-2.405-5.33-5.33 0-2.925 2.406-5.33 5.33-5.33 2.925 0 5.33 2.406 5.33 5.33ZM33.21 64.736c0 2.924-2.405 5.33-5.33 5.33-2.924 0-5.33-2.406-5.33-5.33 0-2.925 2.405-5.33 5.33-5.33 2.925 0 5.33 2.405 5.33 5.33ZM18.594 32.815c0 2.925-2.405 5.33-5.33 5.33-2.924 0-5.33-2.405-5.33-5.33 0-2.924 2.406-5.33 5.33-5.33 2.925 0 5.33 2.406 5.33 5.33ZM50.46 19.264c0 2.925-2.405 5.33-5.33 5.33-2.924 0-5.33-2.405-5.33-5.33 0-2.924 2.406-5.33 5.33-5.33 2.925 0 5.33 2.406 5.33 5.33ZM50.46 64.736c0 2.924-2.405 5.33-5.33 5.33-2.924 0-5.33-2.406-5.33-5.33 0-2.925 2.406-5.33 5.33-5.33 2.925 0 5.33 2.405 5.33 5.33ZM64.066 50.868c0 2.925-2.406 5.33-5.33 5.33-2.925 0-5.33-2.405-5.33-5.33 0-2.925 2.405-5.33 5.33-5.33 2.924 0 5.33 2.406 5.33 5.33ZM64.066 32.815c0 2.925-2.406 5.33-5.33 5.33-2.925 0-5.33-2.405-5.33-5.33 0-2.924 2.405-5.33 5.33-5.33 2.924 0 5.33 2.406 5.33 5.33Z" fill="#1F1F2D"/>
    <path d="M41.33 34.5c0 2.925-2.405 5.33-5.33 5.33-2.925 0-5.33-2.405-5.33-5.33 0-2.924 2.405-5.33 5.33-5.33 2.925 0 5.33 2.405 5.33 5.33ZM41.33 49.795c0 2.924-2.405 5.33-5.33 5.33-2.925 0-5.33-2.406-5.33-5.33 0-2.925 2.405-5.33 5.33-5.33 2.925 0 5.33 2.405 5.33 5.33ZM29.255 42c0 2.925-2.406 5.33-5.33 5.33-2.925 0-5.33-2.405-5.33-5.33 0-2.925 2.405-5.33 5.33-5.33 2.924 0 5.33 2.405 5.33 5.33ZM53.406 42c0 2.925-2.406 5.33-5.33 5.33-2.925 0-5.33-2.405-5.33-5.33 0-2.925 2.405-5.33 5.33-5.33 2.924 0 5.33 2.405 5.33 5.33Z" fill="#323246"/>
    <path d="M39.798 36.747c0 2.85-1.034 5.452-2.086 7.357A20.313 20.313 0 0 1 36 46.706a20.313 20.313 0 0 1-1.712-2.602c-1.052-1.905-2.087-4.506-2.087-7.357 0-2.852 1.035-5.453 2.087-7.357A20.313 20.313 0 0 1 36 26.788a20.313 20.313 0 0 1 1.712 2.602c1.052 1.904 2.086 4.505 2.086 7.357Z" stroke="#F3A952"/>
    <path d="M32.972 38.803c1.507 1.507 2.152 3.642 2.41 5.456a15.995 15.995 0 0 1 .145 2.769 15.996 15.996 0 0 1-2.769-.145c-1.814-.258-3.95-.903-5.456-2.41-1.507-1.507-2.152-3.642-2.41-5.456a15.996 15.996 0 0 1-.145-2.769 15.995 15.995 0 0 1 2.769.145c1.814.258 3.95.903 5.456 2.41ZM39.028 38.803c-1.507 1.507-2.152 3.642-2.41 5.456a15.995 15.995 0 0 0-.145 2.769 15.996 15.996 0 0 0 2.769-.145c1.814-.258 3.95-.903 5.456-2.41 1.507-1.507 2.152-3.642 2.41-5.456a15.996 15.996 0 0 0 .145-2.769 15.995 15.995 0 0 0-2.769.145c-1.814.258-3.95.903-5.456 2.41Z" stroke="#F3A952"/>
    <path d="M21.85 53.158v8.531h-1.758v-8.531h1.758Zm3.398 3.644v1.371H21.37v-1.37h3.878Zm.41-3.644v1.377H21.37v-1.377h4.289Zm.756 5.425v-.123c0-.464.067-.892.2-1.283.132-.394.326-.736.58-1.025a2.6 2.6 0 0 1 .937-.674 3.132 3.132 0 0 1 1.277-.246c.48 0 .909.082 1.284.246.375.16.69.385.943.674.258.289.453.63.586 1.025.133.39.2.819.2 1.283v.123c0 .461-.067.89-.2 1.284a2.99 2.99 0 0 1-.586 1.025c-.254.29-.566.514-.938.674-.37.16-.796.24-1.277.24-.48 0-.908-.08-1.283-.24a2.654 2.654 0 0 1-.943-.674 3.043 3.043 0 0 1-.58-1.025 3.999 3.999 0 0 1-.2-1.283Zm1.688-.123v.123c0 .266.023.514.07.745.047.23.121.433.223.609.105.172.242.307.41.404.168.098.373.147.615.147.234 0 .436-.049.604-.147.168-.097.302-.232.404-.404a2.01 2.01 0 0 0 .223-.61c.05-.23.076-.478.076-.743v-.124c0-.257-.026-.5-.076-.726a1.915 1.915 0 0 0-.229-.61 1.135 1.135 0 0 0-.404-.421 1.157 1.157 0 0 0-.61-.153c-.238 0-.441.051-.609.153a1.198 1.198 0 0 0-.404.421 2.01 2.01 0 0 0-.223.61 3.58 3.58 0 0 0-.07.726Zm8.214 2.028c.207 0 .391-.04.551-.117a.93.93 0 0 0 .375-.34.994.994 0 0 0 .147-.522h1.588a2.112 2.112 0 0 1-.358 1.19 2.457 2.457 0 0 1-.943.814 2.944 2.944 0 0 1-1.324.293c-.493 0-.922-.082-1.29-.246a2.518 2.518 0 0 1-.908-.68 2.978 2.978 0 0 1-.545-1.02 4.212 4.212 0 0 1-.181-1.253v-.17c0-.45.06-.867.181-1.254.121-.39.303-.73.545-1.02.242-.292.545-.52.908-.685.364-.164.79-.246 1.278-.246.52 0 .974.1 1.365.299.395.199.703.484.926.855.226.367.342.803.346 1.307h-1.588a1.322 1.322 0 0 0-.135-.574 1.013 1.013 0 0 0-.943-.568c-.246 0-.448.052-.604.157a1.01 1.01 0 0 0-.363.422 2.1 2.1 0 0 0-.182.604 5.066 5.066 0 0 0-.047.703v.17c0 .246.016.482.047.709.031.226.09.428.176.603.09.176.213.315.369.416.156.102.36.153.61.153Zm7.63-.317V55.35h1.687v6.34h-1.588l-.1-1.518Zm.187-1.3.498-.012c0 .422-.05.814-.147 1.178-.098.359-.244.672-.44.937a2.054 2.054 0 0 1-.738.615c-.296.145-.646.217-1.048.217-.309 0-.594-.043-.856-.129a1.741 1.741 0 0 1-.668-.416 2.015 2.015 0 0 1-.434-.732 3.408 3.408 0 0 1-.152-1.084v-4.096h1.688v4.108c0 .187.021.345.064.474a.85.85 0 0 0 .194.317c.081.082.177.14.287.175.113.035.238.053.375.053.347 0 .62-.07.82-.21.203-.142.346-.333.428-.575.086-.246.129-.52.129-.82Zm6.456 1.066a.548.548 0 0 0-.105-.328c-.07-.098-.201-.188-.393-.27-.187-.086-.459-.164-.814-.234-.32-.07-.62-.158-.897-.264a3.111 3.111 0 0 1-.715-.392 1.707 1.707 0 0 1-.468-.54 1.5 1.5 0 0 1-.17-.72 1.7 1.7 0 0 1 .17-.75c.117-.234.283-.441.498-.621.219-.184.484-.326.797-.428a3.363 3.363 0 0 1 1.066-.158c.55 0 1.024.088 1.418.264.398.175.703.418.914.726.215.305.322.652.322 1.043h-1.687a.903.903 0 0 0-.105-.44.697.697 0 0 0-.317-.31c-.14-.078-.324-.117-.55-.117-.188 0-.35.033-.487.1a.746.746 0 0 0-.317.257.62.62 0 0 0-.105.352c0 .098.02.185.059.264a.64.64 0 0 0 .205.205c.093.062.215.12.363.175.152.051.34.098.563.141.456.094.865.217 1.224.37.36.148.645.35.856.609.21.253.316.587.316 1.002 0 .28-.063.539-.188.773-.125.234-.304.44-.539.615a2.729 2.729 0 0 1-.843.404c-.324.094-.69.141-1.096.141-.59 0-1.09-.105-1.5-.316-.406-.211-.715-.479-.926-.803a1.867 1.867 0 0 1-.31-1.008h1.6c.007.23.066.416.175.557a.96.96 0 0 0 .428.305c.176.062.365.093.568.093.219 0 .4-.029.545-.088a.774.774 0 0 0 .328-.246.595.595 0 0 0 .117-.363Z" fill="#F3A952"/>
    <circle cx="36" cy="45" r="40" fill="url(#b)"/>
  </g>
  <defs>
    <radialGradient id="b" cx="0" cy="0" r="1" gradientUnits="userSpaceOnUse" gradientTransform="matrix(0 35.5 -34.6404 0 36 45)">
      <stop stop-color="#F3A952" stop-opacity=".32"/>
      <stop offset="1" stop-color="#362510" stop-opacity="0"/>
    </radialGradient>
    <clipPath id="a">
      <rect width="72" height="90" rx="12" fill="#fff"/>
    </clipPath>
  </defs>
</svg>
