<svg fill="none" height="34" width="34" xmlns="http://www.w3.org/2000/svg">
  <rect fill="#fff" fill-opacity=".1" height="34" rx="17" width="34"/>
  <rect height="33" rx="16.5" stroke="#fff" stroke-opacity=".2" width="33" x=".5" y=".5"/>
  <g fill="#fff">
    <path d="M10.368 14.263A2.375 2.375 0 0 0 8 16.632 2.375 2.375 0 0 0 10.368 19a2.375 2.375 0 0 0 2.369-2.368 2.375 2.375 0 0 0-2.369-2.369zM23.632 14.263a2.375 2.375 0 0 0-2.368 2.369A2.375 2.375 0 0 0 23.632 19a2.375 2.375 0 0 0 2.369-2.368 2.375 2.375 0 0 0-2.369-2.369zM17 14.263a2.375 2.375 0 0 0-2.368 2.369A2.375 2.375 0 0 0 17 19a2.375 2.375 0 0 0 2.369-2.368A2.375 2.375 0 0 0 17 14.263z"/>
  </g>
</svg>
