<svg xmlns="http://www.w3.org/2000/svg" width="21" height="18" fill="none" class="injected-svg" data-src="/icons/new/menu-study.svg"><path d="M20.125 3.5a.875.875 0 0 0-.875.875v8.475h-7.362A9.841 9.841 0 0 1 17.5 11.1V1c0-.552-.449-1.005-.999-.95A9.869 9.869 0 0 0 10.5 2.902 9.87 9.87 0 0 0 4.498.05C3.948-.005 3.5.448 3.5 1v10.1a9.84 9.84 0 0 1 5.612 1.75H1.75V4.375a.875.875 0 0 0-1.75 0v10.5c0 .482.394.875.875.875H8.75a1.75 1.75 0 1 0 3.5 0h7.875c.481 0 .875-.393.875-.875v-10.5a.878.878 0 0 0-.875-.875Z" fill="#363636"/></svg>