<svg xmlns="http://www.w3.org/2000/svg" width="16" height="16" viewBox="0 0 19 22" fill="none" class="injected-svg" data-src="/icons/new/menu-notes.svg">
  <path d="M14.222.508a.787.787 0 0 1 .78.68l.007.107v.786h.786a2.361 2.361 0 0 1 2.36 2.36v10.757h-3.939l-.161.006a2.361 2.361 0 0 0-2.193 2.187l-.007.169v3.94H3.208a2.36 2.36 0 0 1-2.361-2.361L.845 4.443a2.361 2.361 0 0 1 2.36-2.361l.785-.001v-.786a.787.787 0 0 1 1.567-.107l.008.107v.786h3.148v-.786a.787.787 0 0 1 1.567-.107l.008.107v.786h3.145v-.786a.787.787 0 0 1 .788-.787Zm3.473 16.265-4.267 4.265.001-3.478.008-.107a.786.786 0 0 1 .672-.673l.107-.007h3.479Zm-8.723-1.575H4.778l-.107.008a.787.787 0 0 0 0 1.56l.107.007h4.195l.107-.008a.787.787 0 0 0 0-1.56l-.107-.007h-.001Zm5.247-4.197H4.777l-.107.008a.788.788 0 0 0 0 1.559l.107.007h9.442l.107-.007a.788.788 0 0 0 0-1.56l-.107-.007h-.002Zm0-4.197H4.777l-.107.007a.787.787 0 0 0 0 1.56l.107.007h9.442l.107-.007a.787.787 0 0 0 0-1.56l-.107-.007h-.002Z" fill="#949494"/>
</svg>
