<svg xmlns="http://www.w3.org/2000/svg" width="14" height="17" viewBox="0 0 9 11" fill="none" class="injected-svg" data-src="/icons/new/menu-pdf.svg">
  <path d="M7.09 10.326H1.103a.998.998 0 0 1-.998-.998V1.346a.998.998 0 0 1 .998-.998h3.509l.014.003a.52.52 0 0 1 .13.026h.02a.21.21 0 0 1 .026.021.493.493 0 0 1 .147.1L7.942 3.49a.492.492 0 0 1 .111.18l.005.013a.49.49 0 0 1 .025.129c0 .005.001.01.003.014v.003l.002.01v5.488a.998.998 0 0 1-.998.998ZM5.306 6.335v2.494h.469V7.811h.728v-.418h-.728v-.639h.816v-.42H5.306Zm-1.846 0v2.494h.602a.833.833 0 0 0 .664-.28c.172-.219.258-.494.243-.772v-.404a1.14 1.14 0 0 0-.25-.761.817.817 0 0 0-.645-.277H3.46Zm-1.858 0v2.494h.47v-.877h.311a.74.74 0 0 0 .561-.213.808.808 0 0 0 .205-.579.86.86 0 0 0-.206-.595.699.699 0 0 0-.55-.23h-.79Zm2.993-4.99V3.84H7.09L4.595 1.346ZM4.07 8.412h-.141V6.754h.17a.357.357 0 0 1 .31.146c.073.151.105.32.09.487v.433a.84.84 0 0 1-.1.46.382.382 0 0 1-.33.131Zm-1.677-.879H2.07v-.778h.326a.237.237 0 0 1 .2.113c.054.09.08.193.075.297a.444.444 0 0 1-.074.274.25.25 0 0 1-.205.094Z" fill="#949494"/>
</svg>
