<svg xmlns="http://www.w3.org/2000/svg" width="21" height="21" fill="none" class="injected-svg" data-src="/icons/new/menu-mixer.svg"><path d="M14.19 0a3.501 3.501 0 0 0-3.409 2.706H.955a.955.955 0 1 0 0 1.909h9.917a3.502 3.502 0 0 0 6.638 0h2.535a.955.955 0 0 0 0-1.91H17.6A3.501 3.501 0 0 0 14.19 0ZM5.282 7a3.502 3.502 0 0 0-3.374 2.567l-.978.025a.955.955 0 1 0 .05 1.909l.94-.025a3.502 3.502 0 0 0 6.716.025h11.41a.955.955 0 0 0 0-1.909H8.663A3.502 3.502 0 0 0 5.282 7ZM14.19 14a3.502 3.502 0 0 0-3.348 2.479H.955a.954.954 0 1 0 0 1.909h9.85a3.502 3.502 0 0 0 6.772 0h2.468a.955.955 0 0 0 0-1.91H17.54A3.502 3.502 0 0 0 14.192 14Z" fill="#363636"/></svg>