<svg xmlns="http://www.w3.org/2000/svg" width="32" height="34" fill="none" class="injected-svg" data-src="/static/media/premium-badge.b12e44af575ef72de142a052ff425f27.svg"><g filter="url(#a)"><path d="M14.252 3.148c.761-1.372 2.734-1.372 3.496 0l.803 1.444a2 2 0 0 0 2.298.952l1.588-.454c1.509-.431 2.904.964 2.473 2.473l-.454 1.588a2 2 0 0 0 .952 2.298l1.444.803c1.372.761 1.372 2.734 0 3.496l-1.444.803a2 2 0 0 0-.952 2.298l.454 1.588c.431 1.509-.964 2.904-2.473 2.473l-1.588-.454a2 2 0 0 0-2.298.952l-.803 1.444c-.762 1.372-2.735 1.372-3.496 0l-.803-1.444a2 2 0 0 0-2.298-.952l-1.588.454c-1.509.431-2.904-.964-2.473-2.473l.454-1.588a2 2 0 0 0-.952-2.298l-1.444-.803c-1.372-.761-1.372-2.734 0-3.496l1.444-.803a2 2 0 0 0 .952-2.298L7.09 7.563c-.431-1.509.964-2.904 2.473-2.473l1.588.454a2 2 0 0 0 2.298-.952l.803-1.444Z" fill="#F3A952"/><path d="M21.85 10.513a.34.34 0 0 0-.397-.005l-2.018 1.377a.372.372 0 0 0-.097.505c.116.18.178.388.178.605 0 .602-.473 1.092-1.055 1.092s-1.055-.49-1.055-1.092c0-.354.17-.688.451-.893a.372.372 0 0 0 .086-.507l-1.655-2.449a.356.356 0 0 0-.576 0l-1.655 2.449a.372.372 0 0 0 .086.506c.282.206.45.54.45.894 0 .602-.472 1.092-1.054 1.092-.582 0-1.055-.49-1.055-1.092 0-.217.062-.426.178-.605a.372.372 0 0 0-.097-.505l-2.018-1.377a.34.34 0 0 0-.398.005.37.37 0 0 0-.139.386l1.43 5.824a.348.348 0 0 0 .399.271 24.409 24.409 0 0 1 8.322 0 .355.355 0 0 0 .399-.27l1.43-5.825a.37.37 0 0 0-.14-.386Z" fill="#000012"/></g><defs><filter id="a" x=".119" y="2.119" width="31.762" height="31.762" filterUnits="userSpaceOnUse" color-interpolation-filters="sRGB"><feFlood flood-opacity="0" result="BackgroundImageFix"/><feColorMatrix in="SourceAlpha" values="0 0 0 0 0 0 0 0 0 0 0 0 0 0 0 0 0 0 127 0" result="hardAlpha"/><feOffset dy="4"/><feGaussianBlur stdDeviation="2"/><feComposite in2="hardAlpha" operator="out"/><feColorMatrix values="0 0 0 0 0 0 0 0 0 0 0 0 0 0 0 0 0 0 0.25 0"/><feBlend in2="BackgroundImageFix" result="effect1_dropShadow_735_5404"/><feBlend in="SourceGraphic" in2="effect1_dropShadow_735_5404" result="shape"/></filter></defs></svg>