<svg xmlns="http://www.w3.org/2000/svg" width="21" height="21" fill="none" class="injected-svg" data-src="/icons/new/menu-scenes.svg"><path fill-rule="evenodd" clip-rule="evenodd" d="M15.442 16.222c-.458.107-.921.187-1.387.24a6.15 6.15 0 0 1-4.5 4.266 10.29 10.29 0 0 1-4.7 0 6.15 6.15 0 0 1-4.583-4.583 10.29 10.29 0 0 1 0-4.7 6.15 6.15 0 0 1 4.267-4.5c.052-.466.132-.929.24-1.387A7.037 7.037 0 0 1 10.022.314a11.866 11.866 0 0 1 5.42 0 7.037 7.037 0 0 1 5.243 5.244 11.866 11.866 0 0 1 0 5.42 7.037 7.037 0 0 1-5.244 5.244Zm-5.42 0c.741.174 1.495.275 2.25.304a4.492 4.492 0 0 1-3.096 2.588 8.631 8.631 0 0 1-3.942 0 4.492 4.492 0 0 1-3.348-3.348 8.631 8.631 0 0 1 0-3.942 4.493 4.493 0 0 1 2.588-3.096 11.864 11.864 0 0 0 .304 2.25 7.037 7.037 0 0 0 5.245 5.244Z" fill="#363636"/></svg>