<svg xmlns="http://www.w3.org/2000/svg" width="21" height="21" fill="none" class="injected-svg" data-src="/icons/new/menu-templates.svg"><path d="M9.662 0v6.303H.602A8.91 8.91 0 0 1 7.036.379C7.9.175 8.78.049 9.662 0ZM11.338 0v13.018h9.453a15.24 15.24 0 0 0-.192-5.99 8.912 8.912 0 0 0-6.634-6.65A15.143 15.143 0 0 0 11.338 0ZM20.397 14.697h-9.06V21a15.14 15.14 0 0 0 2.628-.379 8.91 8.91 0 0 0 6.432-5.924ZM9.662 21V7.982H.21A15.24 15.24 0 0 0 .4 13.973a8.912 8.912 0 0 0 6.634 6.648c.866.204 1.745.33 2.627.379Z" fill="#363636"/></svg>