<svg xmlns="http://www.w3.org/2000/svg" width="16" height="16" viewBox="0 0 22 17" fill="none" class="injected-svg" data-src="/icons/new/menu-youtube.svg">
  <path d="M20.82 2.511a2.904 2.904 0 0 0-.654-1.27A2.527 2.527 0 0 0 19.024.5c-1.604-.495-8.03-.495-8.03-.495a56.001 56.001 0 0 0-8.02.47c-.428.139-.82.4-1.142.76a3.016 3.016 0 0 0-.665 1.275 33.916 33.916 0 0 0-.416 5.493c-.01 1.84.128 3.679.416 5.492.117.48.345.916.662 1.27.317.352.712.607 1.145.742 1.626.494 8.02.494 8.02.494a56.132 56.132 0 0 0 8.03-.47c.428-.13.822-.385 1.142-.742a2.9 2.9 0 0 0 .654-1.27c.295-1.81.438-3.65.428-5.493.022-1.851-.121-3.7-.427-5.516v.001ZM8.952 11.426V4.581l5.346 3.423-5.346 3.422Z" fill="#949494"/>
</svg>
