<svg xmlns="http://www.w3.org/2000/svg" width="24" height="24" fill="none" class="mdl-js">
  <circle cx="12" cy="12" r="12" fill="#fff" fill-opacity=".2"/>
  <path d="M8.524 18.982a.61.61 0 0 1-.47-.46.602.602 0 0 1 .157-.627l.368-.369c-.725 0-1.335-.248-1.833-.745C6.25 16.283 6 15.67 6 14.947v-7c0-.65.169-1.17.507-1.557.337-.386.782-.68 1.335-.884a7.602 7.602 0 0 1 1.888-.405 24.645 24.645 0 0 1 4.459 0c.718.068 1.344.203 1.878.405.534.203.955.498 1.262.884.307.388.46.906.46 1.557v7c0 .725-.248 1.336-.745 1.834-.498.497-1.109.745-1.834.745l.369.369c.172.172.224.38.156.626a.61.61 0 0 1-.47.46.714.714 0 0 1-.321 0 .594.594 0 0 1-.286-.165l-1.29-1.29h-2.947l-1.29 1.29a.594.594 0 0 1-.285.166.718.718 0 0 1-.322 0Zm-1.05-8.087h3.684v-2.21H7.474v2.21Zm5.158 0h3.684v-2.21h-3.684v2.21Zm-3.316 4.42c.32 0 .583-.104.792-.312.209-.21.313-.473.313-.793 0-.319-.104-.583-.313-.792a1.073 1.073 0 0 0-.792-.313c-.32 0-.584.105-.792.313a1.074 1.074 0 0 0-.313.793c0 .319.104.583.313.792.208.208.472.313.792.313Zm5.158 0c.319 0 .583-.104.792-.312.209-.21.313-.473.313-.793 0-.319-.104-.583-.313-.792a1.073 1.073 0 0 0-.792-.313c-.32 0-.584.105-.792.313a1.073 1.073 0 0 0-.314.793c0 .319.105.583.314.792.208.208.472.313.792.313Z" fill="#232323" fill-rule="evenodd"/>
</svg>
