<svg width="24" height="24" viewBox="0 0 24 24" fill="none" xmlns="http://www.w3.org/2000/svg">
<circle cx="12" cy="12" r="12" fill="#222222" />
<path d="M15.0676 11C16.4483 11 17.5676 9.88071 17.5676 8.5C17.5676 7.11929 16.4483 6 15.0676 6C13.6869 6 12.5676 7.11929 12.5676 8.5C12.5676 9.88071 13.6869 11 15.0676 11Z" fill="#2d2d2d" stroke="#2d2d2d" stroke-width="4" stroke-linecap="round" stroke-linejoin="round"/>
<path d="M6.5 13.9189C7.32843 13.9189 8 13.2473 8 12.4189C8 11.5905 7.32843 10.9189 6.5 10.9189C5.67157 10.9189 5 11.5905 5 12.4189C5 13.2473 5.67157 13.9189 6.5 13.9189Z" fill="#2d2d2d" stroke="#2d2d2d" stroke-width="4" stroke-linecap="round" stroke-linejoin="round"/>
<path d="M13.1892 18.2162C13.7415 18.2162 14.1892 17.7685 14.1892 17.2162C14.1892 16.6639 13.7415 16.2162 13.1892 16.2162C12.6369 16.2162 12.1892 16.6639 12.1892 17.2162C12.1892 17.7685 12.6369 18.2162 13.1892 18.2162Z" fill="#2d2d2d" stroke="#2d2d2d" stroke-width="4" stroke-linecap="round" stroke-linejoin="round"/>
</svg>
